<svg width="48" height="48" xmlns="http://www.w3.org/2000/svg">

 <g>
  <title>background</title>
  <rect fill="none" id="canvas_background" height="402" width="582" y="-1" x="-1"/>
 </g>
 <g>
  <title>Layer 1</title>
  <path stroke="null" id="svg_1" fill="#4267b2" d="m23.91144,0.322368c-12.959159,0 -23.501827,10.64061 -23.501827,23.721621s10.542668,23.721621 23.501827,23.721621s23.503005,-10.64061 23.503005,-23.721621s-10.543846,-23.721621 -23.503005,-23.721621zm9.843178,26.692749l-6.898572,0l0,6.963438c0,1.644297 -1.326201,2.982968 -2.956359,2.982968c-1.617251,0 -2.932876,-1.338671 -2.932876,-2.982968l0,-6.963438l-6.897394,0c-1.630158,0 -2.957537,-1.326831 -2.957537,-2.959289c0,-1.644297 1.327379,-2.982968 2.957537,-2.982968l6.897394,0l0,-6.963438c0,-1.632458 1.315625,-2.959289 2.932876,-2.959289c1.630158,0 2.956359,1.326831 2.956359,2.959289l0,6.963438l6.898572,0c1.630158,0 2.956359,1.338671 2.956359,2.982968c0,1.632458 -1.326201,2.959289 -2.956359,2.959289z"/>
 </g>
</svg>